<svg xmlns="http://www.w3.org/2000/svg" xmlns:xlink="http://www.w3.org/1999/xlink" width="4000" zoomAndPan="magnify" viewBox="0 0 3000 2250.000011" height="3000" preserveAspectRatio="xMidYMid meet" version="1.0"><defs><filter x="0%" y="0%" width="100%" height="100%" id="859d8c9143"><feColorMatrix values="0 0 0 0 1 0 0 0 0 1 0 0 0 0 1 0 0 0 1 0" color-interpolation-filters="sRGB"/></filter><clipPath id="ef4bc0be71"><path d="M 0.667969 140 L 2999.332031 140 L 2999.332031 2109 L 0.667969 2109 Z M 0.667969 140 " clip-rule="nonzero"/></clipPath><mask id="ef7fc54f1b"><g filter="url(#859d8c9143)"><rect x="-300" width="3600" fill="#000000" y="-225.000001" height="2700.000013" fill-opacity="0.3098"/></g></mask><clipPath id="7d436e38b9"><path d="M 0.667969 0.5625 L 2999.332031 0.5625 L 2999.332031 1968.664062 L 0.667969 1968.664062 Z M 0.667969 0.5625 " clip-rule="nonzero"/></clipPath><clipPath id="bb392f4de9"><path d="M 1703.242188 0.5625 C 1736.136719 0.5625 1769.222656 0.5625 1802.050781 0.5625 C 2063.761719 33.429688 2227.320312 142.839844 2301.820312 321.863281 C 2738.140625 297.988281 3055.371094 636.5 2862.042969 968.734375 C 2926.328125 1038.546875 2979.964844 1116.636719 2999.332031 1221.453125 C 2999.332031 1251.476562 2999.332031 1281.429688 2999.332031 1311.449219 C 2941.609375 1578.207031 2693.222656 1758.464844 2285.433594 1709.9375 C 2180.515625 1846.90625 1993.820312 1984.074219 1703.304688 1966.988281 C 1553.140625 1958 1448.675781 1905.914062 1357.210938 1842.640625 C 1260.875 1895.238281 1156.539062 1936.515625 1005.792969 1936.96875 C 657.03125 1937.75 423.726562 1735.109375 418.070312 1457.15625 C 193.863281 1392.132812 42.011719 1270.753906 0.667969 1063.066406 C 0.667969 1033.046875 0.667969 1002.960938 0.667969 973.066406 C 46.300781 767.261719 189.898438 637.984375 428.992188 583.183594 C 414.625 236.007812 892.878906 19.066406 1285.773438 172.019531 C 1379.316406 96.382812 1511.667969 13.890625 1703.242188 0.5625 " clip-rule="nonzero"/></clipPath><clipPath id="ed0cca2452"><rect x="0" width="3000" y="0" height="1969"/></clipPath><clipPath id="fe4472e6e2"><path d="M 844 526 L 1000 526 L 1000 580.867188 L 844 580.867188 Z M 844 526 " clip-rule="nonzero"/></clipPath><clipPath id="c42f6f284f"><path d="M 877 545 L 967 545 L 967 580.867188 L 877 580.867188 Z M 877 545 " clip-rule="nonzero"/></clipPath><clipPath id="f4c5091b0d"><path d="M 942.640625 552.796875 C 943.167969 551.085938 943.257812 548.449219 937.960938 549.644531 C 937.960938 549.644531 923.488281 551.703125 922.796875 568.539062 L 922.46875 600.789062 L 918.988281 600.789062 L 918.660156 568.539062 C 917.972656 551.707031 903.5 549.644531 903.5 549.644531 C 898.21875 548.449219 898.289062 551.085938 898.816406 552.792969 C 893.625 543.984375 879.722656 545.121094 879.722656 545.121094 C 874.898438 546.835938 879.378906 549.929688 879.378906 549.929688 C 886.957031 552.675781 887.652344 560.921875 887.652344 560.921875 L 887.652344 584.21875 L 888.453125 602.230469 C 890.171875 610.253906 894.417969 614.996094 898.585938 617.789062 L 942.957031 617.738281 C 948.324219 614.105469 953.8125 607.222656 953.8125 594.230469 L 953.8125 560.921875 C 953.8125 560.921875 954.5 552.675781 962.082031 549.929688 C 969.667969 547.183594 966.558594 546.835938 961.738281 545.121094 C 961.738281 545.121094 961.148438 545.078125 960.171875 545.074219 C 956.386719 545.074219 946.769531 545.796875 942.644531 552.796875 M 900.742188 586 L 900.742188 560.582031 C 900.742188 558.097656 900.304688 556.007812 899.550781 554.253906 C 904.542969 558.132812 904.875 567.851562 904.875 567.851562 L 904.875 599.582031 C 899.910156 596.078125 900.742188 585.996094 900.742188 585.996094 M 936.589844 567.847656 C 936.589844 567.847656 936.921875 558.128906 941.914062 554.25 C 941.164062 556.003906 940.722656 558.09375 940.722656 560.578125 L 940.722656 585.996094 C 940.722656 585.996094 941.554688 595.367188 936.589844 599.222656 Z M 936.589844 567.847656 " clip-rule="nonzero"/></clipPath><clipPath id="0ccfb463e7"><path d="M 1726.757812 1931.894531 L 1794.976562 1931.894531 L 1794.976562 2000.113281 L 1726.757812 2000.113281 Z M 1726.757812 1931.894531 " clip-rule="nonzero"/></clipPath><clipPath id="35ef7fd3c9"><path d="M 1128 1136 L 2290.242188 1136 L 2290.242188 1183 L 1128 1183 Z M 1128 1136 " clip-rule="nonzero"/></clipPath><clipPath id="42e64972c9"><path d="M 709.945312 1136 L 1129 1136 L 1129 1183 L 709.945312 1183 Z M 709.945312 1136 " clip-rule="nonzero"/></clipPath><clipPath id="c6d0a17327"><path d="M 1871 1182 L 1913 1182 L 1913 1998.945312 L 1871 1998.945312 Z M 1871 1182 " clip-rule="nonzero"/></clipPath><clipPath id="7d209986db"><path d="M 1871 1956 L 2290.242188 1956 L 2290.242188 1998.945312 L 1871 1998.945312 Z M 1871 1956 " clip-rule="nonzero"/></clipPath><clipPath id="6ddcfff79c"><path d="M 2249 1182 L 2290.242188 1182 L 2290.242188 1998.945312 L 2249 1998.945312 Z M 2249 1182 " clip-rule="nonzero"/></clipPath><clipPath id="15e390a9d0"><path d="M 709.945312 1182 L 751 1182 L 751 1983 L 709.945312 1983 Z M 709.945312 1182 " clip-rule="nonzero"/></clipPath><clipPath id="c4d3988bb2"><path d="M 709.945312 1956 L 1129 1956 L 1129 1998.945312 L 709.945312 1998.945312 Z M 709.945312 1956 " clip-rule="nonzero"/></clipPath><clipPath id="041d884f0f"><path d="M 1313 1902 L 1519 1902 L 1519 1998.945312 L 1313 1998.945312 Z M 1313 1902 " clip-rule="nonzero"/></clipPath><clipPath id="1c53fdfde0"><path d="M 1153 1902 L 1359 1902 L 1359 1998.945312 L 1153 1998.945312 Z M 1153 1902 " clip-rule="nonzero"/></clipPath><clipPath id="77c81f34e4"><path d="M 1819 1930 L 1888 1930 L 1888 1998.945312 L 1819 1998.945312 Z M 1819 1930 " clip-rule="nonzero"/></clipPath><clipPath id="3b18395f14"><path d="M 1632 1930 L 1702 1930 L 1702 1998.945312 L 1632 1998.945312 Z M 1632 1930 " clip-rule="nonzero"/></clipPath><clipPath id="7b09d6b841"><path d="M 2006 1930 L 2075 1930 L 2075 1998.945312 L 2006 1998.945312 Z M 2006 1930 " clip-rule="nonzero"/></clipPath></defs><g clip-path="url(#ef4bc0be71)"><g mask="url(#ef7fc54f1b)"><g transform="matrix(1, 0, 0, 1, 0, 140)"><g clip-path="url(#ed0cca2452)"><g clip-path="url(#7d436e38b9)"><g clip-path="url(#bb392f4de9)"><path fill="#5ce1e6" d="M 0.667969 0.5625 L 2999.332031 0.5625 L 2999.332031 1968.4375 L 0.667969 1968.4375 Z M 0.667969 0.5625 " fill-opacity="1" fill-rule="nonzero"/></g></g></g></g></g></g><g clip-path="url(#fe4472e6e2)"><path fill="#a0dcf2" d="M 999.359375 553.816406 C 999.359375 568.761719 964.640625 580.875 921.8125 580.875 C 878.984375 580.875 844.265625 568.761719 844.265625 553.816406 C 844.265625 538.875 878.984375 526.757812 921.8125 526.757812 C 964.640625 526.757812 999.359375 538.890625 999.359375 553.816406 " fill-opacity="1" fill-rule="nonzero"/></g><g clip-path="url(#c42f6f284f)"><g clip-path="url(#f4c5091b0d)"><path fill="#82bde7" d="M 999.359375 553.816406 C 999.359375 568.761719 964.640625 580.875 921.8125 580.875 C 878.984375 580.875 844.265625 568.761719 844.265625 553.816406 C 844.265625 538.875 878.984375 526.757812 921.8125 526.757812 C 964.640625 526.757812 999.359375 538.890625 999.359375 553.816406 " fill-opacity="1" fill-rule="nonzero"/></g></g><path fill="#a0dcf2" d="M 833.234375 474.257812 L 830.996094 482.035156 C 830.996094 482.035156 830.414062 484.84375 833.070312 485.34375 C 835.84375 485.289062 835.617188 482.703125 835.421875 481.863281 L 833.234375 474.261719 Z M 833.234375 474.257812 " fill-opacity="1" fill-rule="nonzero"/><path fill="#292929" d="M 1058.667969 441.65625 L 1058.875 440.644531 C 1036.125 436.109375 1012.78125 436.0625 998.640625 436.648438 C 1000.960938 428.316406 1001.660156 418.726562 1001.660156 408.03125 C 1001.660156 392.695312 995.878906 380.425781 986.496094 371.09375 C 988.136719 365.816406 990.328125 354.097656 984.308594 339.097656 C 984.308594 339.097656 973.679688 335.738281 949.6875 351.757812 C 940.28125 349.414062 930.269531 348.253906 920.246094 348.253906 C 909.214844 348.253906 898.070312 349.65625 887.675781 352.5 C 862.894531 335.644531 851.957031 339.097656 851.957031 339.097656 C 844.816406 356.910156 849.230469 370.070312 850.570312 373.347656 C 842.175781 382.375 837.054688 393.902344 837.054688 408.03125 C 837.054688 418.699219 838.273438 428.269531 841.25 436.585938 C 827.003906 436.070312 804.511719 436.269531 782.558594 440.640625 L 782.761719 441.652344 C 804.828125 437.253906 827.464844 437.097656 841.609375 437.632812 C 842.261719 439.351562 842.992188 441.011719 843.8125 442.640625 C 829.8125 443.089844 805.910156 444.867188 783 451.3125 L 783.28125 452.300781 C 806.371094 445.808594 830.480469 444.074219 844.34375 443.65625 C 852.710938 459.195312 869.199219 469.238281 898.539062 472.375 C 894.375 475.164062 890.128906 479.90625 888.402344 487.929688 C 882.730469 490.632812 864.765625 497.242188 853.988281 478.761719 C 853.988281 478.761719 847.957031 467.765625 836.410156 466.90625 C 836.410156 466.90625 825.210938 466.753906 835.632812 473.863281 C 835.632812 473.863281 843.132812 477.382812 848.300781 490.601562 C 848.300781 490.601562 855.046875 513.171875 887.601562 505.929688 L 887.601562 529.242188 C 887.601562 529.242188 886.914062 537.488281 879.328125 540.234375 C 871.746094 542.980469 874.851562 543.328125 879.675781 545.042969 C 879.675781 545.042969 900.695312 546.761719 900.695312 529.585938 L 900.695312 504.164062 C 900.695312 504.164062 899.863281 494.082031 904.828125 490.578125 L 904.828125 532.371094 C 904.828125 532.371094 904.484375 542.332031 899.316406 546.113281 C 894.144531 549.890625 895.871094 552.292969 903.449219 550.578125 C 903.449219 550.578125 917.921875 548.519531 918.613281 531.683594 L 918.941406 489.429688 L 922.417969 489.429688 L 922.75 531.683594 C 923.4375 548.515625 937.910156 550.578125 937.910156 550.578125 C 945.488281 552.292969 942.042969 546.113281 942.042969 546.113281 C 936.875 542.335938 936.53125 532.371094 936.53125 532.371094 L 936.53125 490.976562 C 941.496094 494.816406 940.667969 504.203125 940.667969 504.203125 L 940.667969 529.625 C 940.667969 546.800781 961.683594 545.082031 961.683594 545.082031 C 966.507812 543.367188 962.03125 540.273438 962.03125 540.273438 C 954.449219 537.507812 953.757812 529.28125 953.757812 529.28125 L 953.757812 495.960938 C 953.757812 482.96875 948.269531 476.082031 942.902344 472.453125 C 974.175781 469.359375 989.203125 459.289062 996.125 443.636719 C 1009.828125 444.011719 1034.492188 445.675781 1058.082031 452.316406 L 1058.363281 451.324219 C 1034.90625 444.726562 1010.40625 443.023438 996.5625 442.621094 C 997.21875 441.039062 997.789062 439.394531 998.300781 437.707031 C 1012.324219 437.089844 1035.777344 437.113281 1058.613281 441.667969 " fill-opacity="1" fill-rule="nonzero"/><path fill="#f5cdb5" d="M 971.078125 407.300781 C 977.816406 413.386719 981.757812 420.738281 981.757812 428.65625 C 981.757812 465.628906 954.109375 466.632812 920.007812 466.632812 C 885.90625 466.632812 858.25 461.53125 858.25 428.683594 C 858.25 420.816406 862.140625 413.511719 868.796875 407.449219 C 879.894531 397.347656 898.6875 402.699219 920 402.699219 C 941.230469 402.699219 959.953125 397.296875 971.066406 407.328125 " fill-opacity="1" fill-rule="nonzero"/><path fill="#ffffff" d="M 899.472656 430.550781 C 899.472656 440.734375 893.71875 448.988281 886.625 448.988281 C 879.527344 448.988281 873.773438 440.734375 873.773438 430.550781 C 873.773438 420.367188 879.527344 412.117188 886.625 412.117188 C 893.71875 412.117188 899.472656 420.367188 899.472656 430.550781 " fill-opacity="1" fill-rule="nonzero"/><path fill="#b1645a" d="M 895.347656 430.78125 C 895.347656 437.570312 891.496094 443.070312 886.78125 443.070312 C 882.066406 443.070312 878.21875 437.570312 878.21875 430.78125 C 878.21875 423.992188 882.050781 418.488281 886.78125 418.488281 C 891.515625 418.488281 895.347656 423.992188 895.347656 430.78125 " fill-opacity="1" fill-rule="nonzero"/><path fill="#ffffff" d="M 968.398438 430.550781 C 968.398438 440.734375 962.644531 448.988281 955.546875 448.988281 C 948.449219 448.988281 942.699219 440.734375 942.699219 430.550781 C 942.699219 420.367188 948.453125 412.117188 955.546875 412.117188 C 962.640625 412.117188 968.398438 420.367188 968.398438 430.550781 " fill-opacity="1" fill-rule="nonzero"/><path fill="#b1645a" d="M 964.285156 430.78125 C 964.285156 437.570312 960.433594 443.070312 955.71875 443.070312 C 951.003906 443.070312 947.152344 437.570312 947.152344 430.78125 C 947.152344 423.992188 951.003906 418.488281 955.71875 418.488281 C 960.433594 418.488281 964.285156 423.992188 964.285156 430.78125 M 923.40625 446.90625 C 923.40625 448.675781 921.964844 450.109375 920.191406 450.109375 C 918.417969 450.109375 916.980469 448.675781 916.980469 446.90625 C 916.980469 445.136719 918.414062 443.703125 920.191406 443.703125 C 921.96875 443.703125 923.40625 445.136719 923.40625 446.90625 M 912.707031 455.007812 C 912.660156 454.878906 912.640625 454.746094 912.648438 454.609375 C 912.65625 454.472656 912.6875 454.34375 912.746094 454.21875 C 912.808594 454.097656 912.886719 453.988281 912.988281 453.898438 C 913.089844 453.804688 913.207031 453.738281 913.335938 453.691406 C 913.464844 453.648438 913.597656 453.628906 913.734375 453.636719 C 913.871094 453.640625 914.003906 453.675781 914.125 453.734375 C 914.25 453.792969 914.359375 453.875 914.449219 453.976562 C 914.542969 454.078125 914.609375 454.191406 914.65625 454.320312 C 915.480469 456.648438 917.695312 458.210938 920.164062 458.210938 C 922.636719 458.210938 924.847656 456.648438 925.675781 454.320312 C 925.722656 454.195312 925.792969 454.078125 925.882812 453.976562 C 925.976562 453.875 926.082031 453.796875 926.207031 453.738281 C 926.328125 453.675781 926.460938 453.644531 926.597656 453.636719 C 926.734375 453.628906 926.867188 453.648438 926.996094 453.695312 C 927.125 453.742188 927.238281 453.808594 927.34375 453.898438 C 927.445312 453.992188 927.523438 454.097656 927.582031 454.222656 C 927.640625 454.34375 927.675781 454.476562 927.683594 454.609375 C 927.691406 454.746094 927.671875 454.878906 927.625 455.007812 C 927.347656 455.773438 926.960938 456.476562 926.464844 457.121094 C 925.96875 457.765625 925.386719 458.324219 924.722656 458.789062 C 924.054688 459.257812 923.332031 459.613281 922.554688 459.855469 C 921.777344 460.101562 920.980469 460.222656 920.164062 460.222656 C 919.351562 460.222656 918.554688 460.101562 917.777344 459.855469 C 917 459.613281 916.277344 459.257812 915.609375 458.789062 C 914.945312 458.324219 914.363281 457.765625 913.867188 457.121094 C 913.371094 456.476562 912.984375 455.773438 912.707031 455.007812 " fill-opacity="1" fill-rule="nonzero"/><path fill="#c5e6da" d="M 841.460938 469.683594 C 841.460938 470.539062 840.457031 471.226562 839.21875 471.226562 C 837.984375 471.226562 836.980469 470.535156 836.980469 469.683594 C 836.980469 468.828125 837.980469 468.136719 839.21875 468.136719 C 840.457031 468.136719 841.460938 468.824219 841.460938 469.683594 M 847.667969 473.117188 C 847.667969 473.96875 846.660156 474.664062 845.425781 474.664062 C 844.1875 474.664062 843.183594 473.972656 843.183594 473.117188 C 843.183594 472.257812 844.1875 471.570312 845.425781 471.570312 C 846.664062 471.570312 847.667969 472.261719 847.667969 473.117188 M 851.460938 477.570312 C 851.460938 478.421875 850.457031 479.113281 849.21875 479.113281 C 847.976562 479.113281 846.980469 478.421875 846.980469 477.570312 C 846.980469 476.714844 847.980469 476.019531 849.21875 476.019531 C 850.453125 476.019531 851.460938 476.710938 851.460938 477.570312 M 854.902344 482.722656 C 854.902344 483.578125 853.902344 484.273438 852.664062 484.273438 C 851.425781 484.273438 850.421875 483.582031 850.421875 482.722656 C 850.421875 481.867188 851.421875 481.175781 852.664062 481.175781 C 853.902344 481.175781 854.902344 481.867188 854.902344 482.722656 M 858.695312 487.550781 C 858.695312 488.402344 857.691406 489.097656 856.453125 489.097656 C 855.214844 489.097656 854.214844 488.40625 854.214844 487.550781 C 854.214844 486.699219 855.21875 486.003906 856.453125 486.003906 C 857.691406 486.003906 858.695312 486.695312 858.695312 487.550781 M 863.867188 491.671875 C 863.867188 492.527344 862.863281 493.21875 861.625 493.21875 C 860.382812 493.21875 859.386719 492.527344 859.386719 491.671875 C 859.386719 490.816406 860.386719 490.125 861.625 490.125 C 862.863281 490.125 863.867188 490.816406 863.867188 491.671875 " fill-opacity="1" fill-rule="nonzero"/><path fill="#c5e6da" d="M 871.101562 494.414062 C 871.101562 495.265625 870.101562 495.960938 868.863281 495.960938 C 867.625 495.960938 866.621094 495.269531 866.621094 494.414062 C 866.621094 493.5625 867.625 492.867188 868.863281 492.867188 C 870.101562 492.867188 871.101562 493.558594 871.101562 494.414062 " fill-opacity="1" fill-rule="nonzero"/><path fill="#c5e6da" d="M 878.304688 494.414062 C 878.304688 495.265625 877.304688 495.960938 876.066406 495.960938 C 874.828125 495.960938 873.824219 495.269531 873.824219 494.414062 C 873.824219 493.5625 874.828125 492.867188 876.066406 492.867188 C 877.308594 492.867188 878.304688 493.558594 878.304688 494.414062 " fill-opacity="1" fill-rule="nonzero"/><path fill="#c5e6da" d="M 885.617188 493.21875 C 885.617188 494.074219 884.617188 494.765625 883.378906 494.765625 C 882.140625 494.765625 881.136719 494.074219 881.136719 493.21875 C 881.136719 492.363281 882.136719 491.671875 883.378906 491.671875 C 884.617188 491.671875 885.617188 492.363281 885.617188 493.21875 " fill-opacity="1" fill-rule="nonzero"/><g clip-path="url(#0ccfb463e7)"><path fill="#151b2f" d="M 1760.867188 1931.894531 C 1742.027344 1931.894531 1726.757812 1947.164062 1726.757812 1966.003906 C 1726.757812 1984.84375 1742.027344 2000.113281 1760.867188 2000.113281 C 1779.707031 2000.113281 1794.976562 1984.84375 1794.976562 1966.003906 C 1794.976562 1947.164062 1779.707031 1931.894531 1760.867188 1931.894531 Z M 1767.382812 1986.109375 C 1766.339844 1986.308594 1765.964844 1985.667969 1765.964844 1985.113281 C 1765.964844 1984.4375 1765.992188 1982.210938 1765.992188 1979.449219 C 1765.992188 1977.523438 1765.335938 1976.265625 1764.597656 1975.625 C 1769.179688 1975.113281 1773.992188 1973.367188 1773.992188 1965.433594 C 1773.992188 1963.179688 1773.199219 1961.332031 1771.878906 1959.890625 C 1772.089844 1959.367188 1772.796875 1957.269531 1771.671875 1954.425781 C 1771.671875 1954.425781 1769.949219 1953.871094 1766.019531 1956.542969 C 1764.375 1956.085938 1762.617188 1955.859375 1760.871094 1955.847656 C 1759.121094 1955.859375 1757.359375 1956.085938 1755.71875 1956.542969 C 1751.789062 1953.875 1750.0625 1954.425781 1750.0625 1954.425781 C 1748.945312 1957.269531 1749.652344 1959.367188 1749.863281 1959.890625 C 1748.546875 1961.332031 1747.746094 1963.179688 1747.746094 1965.433594 C 1747.746094 1973.347656 1752.546875 1975.117188 1757.113281 1975.640625 C 1756.527344 1976.15625 1755.996094 1977.066406 1755.808594 1978.398438 C 1754.636719 1978.925781 1751.65625 1979.839844 1749.820312 1976.683594 C 1749.820312 1976.683594 1748.738281 1974.703125 1746.671875 1974.554688 C 1746.671875 1974.554688 1744.664062 1974.527344 1746.535156 1975.808594 C 1746.535156 1975.808594 1747.882812 1976.445312 1748.816406 1978.832031 C 1748.816406 1978.832031 1750.023438 1982.851562 1755.746094 1981.601562 C 1755.757812 1983.324219 1755.773438 1984.625 1755.773438 1985.113281 C 1755.773438 1985.660156 1755.398438 1986.300781 1754.367188 1986.109375 C 1746.191406 1983.378906 1740.296875 1975.640625 1740.296875 1966.515625 C 1740.296875 1955.105469 1749.507812 1945.863281 1760.871094 1945.863281 C 1772.230469 1945.863281 1781.441406 1955.109375 1781.441406 1966.515625 C 1781.441406 1975.636719 1775.554688 1983.371094 1767.386719 1986.109375 Z M 1767.382812 1986.109375 " fill-opacity="1" fill-rule="nonzero"/></g><path fill="#b1d6e5" d="M 1384.890625 1019.339844 L 740.890625 1019.339844 L 740.890625 553.488281 L 1384.890625 553.488281 L 1384.890625 1019.339844 " fill-opacity="1" fill-rule="nonzero"/><path fill="#15151c" d="M 1384.886719 980.691406 L 740.890625 980.691406 L 740.890625 570.398438 L 1384.886719 570.398438 L 1384.886719 980.691406 " fill-opacity="1" fill-rule="nonzero"/><path fill="#15151e" d="M 1366.007812 967.757812 L 759.769531 967.757812 L 759.769531 609.703125 L 1366.007812 609.703125 L 1366.007812 967.757812 " fill-opacity="1" fill-rule="nonzero"/><path fill="#ffffff" d="M 790.582031 609.703125 L 790.582031 967.757812 L 795.5 967.757812 L 795.5 609.703125 " fill-opacity="1" fill-rule="nonzero"/><path fill="#323660" d="M 1366.007812 609.558594 L 759.769531 609.558594 L 759.769531 580.027344 L 1366.007812 580.027344 L 1366.007812 609.558594 " fill-opacity="1" fill-rule="nonzero"/><path fill="#ed3947" d="M 1295.839844 594.800781 C 1295.839844 600.328125 1291.335938 604.832031 1285.808594 604.832031 C 1280.253906 604.832031 1275.769531 600.328125 1275.769531 594.800781 C 1275.769531 589.261719 1280.253906 584.769531 1285.808594 584.769531 C 1291.335938 584.769531 1295.839844 589.261719 1295.839844 594.800781 " fill-opacity="1" fill-rule="nonzero"/><path fill="#80cc28" d="M 1322.242188 594.800781 C 1322.242188 600.328125 1317.757812 604.832031 1312.21875 604.832031 C 1306.671875 604.832031 1302.195312 600.328125 1302.195312 594.800781 C 1302.195312 589.261719 1306.671875 584.769531 1312.21875 584.769531 C 1317.757812 584.769531 1322.242188 589.261719 1322.242188 594.800781 " fill-opacity="1" fill-rule="nonzero"/><path fill="#ebb72e" d="M 1348.417969 594.800781 C 1348.417969 600.328125 1343.925781 604.832031 1338.386719 604.832031 C 1332.847656 604.832031 1328.359375 600.328125 1328.359375 594.800781 C 1328.359375 589.261719 1332.847656 584.769531 1338.386719 584.769531 C 1343.925781 584.769531 1348.417969 589.261719 1348.417969 594.800781 " fill-opacity="1" fill-rule="nonzero"/><path fill="#ffffff" d="M 785.210938 623.40625 L 767.609375 623.40625 L 767.609375 618.03125 L 785.210938 618.03125 L 785.210938 623.40625 " fill-opacity="1" fill-rule="nonzero"/><path fill="#ffffff" d="M 785.210938 641.011719 L 767.609375 641.011719 L 767.609375 635.632812 L 785.210938 635.632812 L 785.210938 641.011719 " fill-opacity="1" fill-rule="nonzero"/><path fill="#ffffff" d="M 785.210938 658.613281 L 767.609375 658.613281 L 767.609375 653.234375 L 785.210938 653.234375 L 785.210938 658.613281 " fill-opacity="1" fill-rule="nonzero"/><path fill="#ffffff" d="M 785.210938 676.234375 L 767.609375 676.234375 L 767.609375 670.863281 L 785.210938 670.863281 L 785.210938 676.234375 " fill-opacity="1" fill-rule="nonzero"/><path fill="#ffffff" d="M 785.210938 693.839844 L 767.609375 693.839844 L 767.609375 688.464844 L 785.210938 688.464844 L 785.210938 693.839844 " fill-opacity="1" fill-rule="nonzero"/><path fill="#ffffff" d="M 785.210938 711.453125 L 767.609375 711.453125 L 767.609375 706.070312 L 785.210938 706.070312 L 785.210938 711.453125 " fill-opacity="1" fill-rule="nonzero"/><path fill="#ffffff" d="M 785.210938 729.054688 L 767.609375 729.054688 L 767.609375 723.675781 L 785.210938 723.675781 L 785.210938 729.054688 " fill-opacity="1" fill-rule="nonzero"/><path fill="#ffffff" d="M 785.210938 746.671875 L 767.609375 746.671875 L 767.609375 741.292969 L 785.210938 741.292969 L 785.210938 746.671875 " fill-opacity="1" fill-rule="nonzero"/><path fill="#ffffff" d="M 785.210938 764.273438 L 767.609375 764.273438 L 767.609375 758.898438 L 785.210938 758.898438 L 785.210938 764.273438 " fill-opacity="1" fill-rule="nonzero"/><path fill="#ffffff" d="M 785.210938 781.886719 L 767.609375 781.886719 L 767.609375 776.511719 L 785.210938 776.511719 L 785.210938 781.886719 " fill-opacity="1" fill-rule="nonzero"/><path fill="#ffffff" d="M 785.210938 799.492188 L 767.609375 799.492188 L 767.609375 794.117188 L 785.210938 794.117188 L 785.210938 799.492188 " fill-opacity="1" fill-rule="nonzero"/><path fill="#ffffff" d="M 785.210938 817.105469 L 767.609375 817.105469 L 767.609375 811.730469 L 785.210938 811.730469 L 785.210938 817.105469 " fill-opacity="1" fill-rule="nonzero"/><path fill="#ffffff" d="M 785.210938 834.71875 L 767.609375 834.71875 L 767.609375 829.335938 L 785.210938 829.335938 L 785.210938 834.71875 " fill-opacity="1" fill-rule="nonzero"/><path fill="#ffffff" d="M 785.210938 852.324219 L 767.609375 852.324219 L 767.609375 846.949219 L 785.210938 846.949219 L 785.210938 852.324219 " fill-opacity="1" fill-rule="nonzero"/><path fill="#ffffff" d="M 785.210938 869.9375 L 767.609375 869.9375 L 767.609375 864.550781 L 785.210938 864.550781 L 785.210938 869.9375 " fill-opacity="1" fill-rule="nonzero"/><path fill="#ffffff" d="M 785.210938 887.550781 L 767.609375 887.550781 L 767.609375 882.164062 L 785.210938 882.164062 L 785.210938 887.550781 " fill-opacity="1" fill-rule="nonzero"/><path fill="#ffffff" d="M 785.210938 905.15625 L 767.609375 905.15625 L 767.609375 899.769531 L 785.210938 899.769531 L 785.210938 905.15625 " fill-opacity="1" fill-rule="nonzero"/><path fill="#ffffff" d="M 785.210938 922.757812 L 767.609375 922.757812 L 767.609375 917.375 L 785.210938 917.375 L 785.210938 922.757812 " fill-opacity="1" fill-rule="nonzero"/><path fill="#ffffff" d="M 785.210938 940.382812 L 767.609375 940.382812 L 767.609375 934.996094 L 785.210938 934.996094 L 785.210938 940.382812 " fill-opacity="1" fill-rule="nonzero"/><path fill="#ffffff" d="M 785.210938 957.988281 L 767.609375 957.988281 L 767.609375 952.601562 L 785.210938 952.601562 L 785.210938 957.988281 " fill-opacity="1" fill-rule="nonzero"/><path fill="#ed3947" d="M 872.285156 623.40625 L 803.796875 623.40625 L 803.796875 618.03125 L 872.285156 618.03125 L 872.285156 623.40625 " fill-opacity="1" fill-rule="nonzero"/><path fill="#ed3947" d="M 943.484375 819.800781 L 875.003906 819.800781 L 875.003906 814.414062 L 943.484375 814.414062 L 943.484375 819.800781 " fill-opacity="1" fill-rule="nonzero"/><path fill="#ed3947" d="M 900.921875 799.492188 L 875.003906 799.492188 L 875.003906 794.117188 L 900.921875 794.117188 L 900.921875 799.492188 " fill-opacity="1" fill-rule="nonzero"/><path fill="#3bbec5" d="M 829.726562 641.011719 L 803.796875 641.011719 L 803.796875 635.632812 L 829.726562 635.632812 L 829.726562 641.011719 " fill-opacity="1" fill-rule="nonzero"/><path fill="#3bbec5" d="M 842.199219 658.613281 L 803.796875 658.613281 L 803.796875 653.234375 L 842.199219 653.234375 L 842.199219 658.613281 " fill-opacity="1" fill-rule="nonzero"/><path fill="#00adef" d="M 862.007812 658.613281 L 848.796875 658.613281 L 848.796875 653.234375 L 862.007812 653.234375 L 862.007812 658.613281 " fill-opacity="1" fill-rule="nonzero"/><path fill="#3bbec5" d="M 901.421875 834.71875 L 875.492188 834.71875 L 875.492188 829.335938 L 901.421875 829.335938 L 901.421875 834.71875 " fill-opacity="1" fill-rule="nonzero"/><path fill="#3bbec5" d="M 913.894531 852.324219 L 875.492188 852.324219 L 875.492188 846.949219 L 913.894531 846.949219 L 913.894531 852.324219 " fill-opacity="1" fill-rule="nonzero"/><path fill="#00adef" d="M 933.707031 852.324219 L 920.5 852.324219 L 920.5 846.949219 L 933.707031 846.949219 L 933.707031 852.324219 " fill-opacity="1" fill-rule="nonzero"/><path fill="#3bbec5" d="M 901.421875 928.882812 L 875.492188 928.882812 L 875.492188 923.496094 L 901.421875 923.496094 L 901.421875 928.882812 " fill-opacity="1" fill-rule="nonzero"/><path fill="#3bbec5" d="M 913.894531 946.476562 L 875.492188 946.476562 L 875.492188 941.101562 L 913.894531 941.101562 L 913.894531 946.476562 " fill-opacity="1" fill-rule="nonzero"/><path fill="#00adef" d="M 933.707031 946.476562 L 920.5 946.476562 L 920.5 941.101562 L 933.707031 941.101562 L 933.707031 946.476562 " fill-opacity="1" fill-rule="nonzero"/><path fill="#3bbec5" d="M 842.199219 746.671875 L 803.796875 746.671875 L 803.796875 741.292969 L 842.199219 741.292969 L 842.199219 746.671875 " fill-opacity="1" fill-rule="nonzero"/><path fill="#00adef" d="M 862.007812 746.671875 L 848.796875 746.671875 L 848.796875 741.292969 L 862.007812 741.292969 L 862.007812 746.671875 " fill-opacity="1" fill-rule="nonzero"/><path fill="#80cc28" d="M 899.679688 623.40625 L 882.0625 623.40625 L 882.0625 618.03125 L 899.679688 618.03125 L 899.679688 623.40625 " fill-opacity="1" fill-rule="nonzero"/><path fill="#80cc28" d="M 923.640625 769.660156 L 848.796875 769.660156 L 848.796875 764.273438 L 923.640625 764.273438 L 923.640625 769.660156 " fill-opacity="1" fill-rule="nonzero"/><path fill="#ffffff" d="M 925.847656 676.234375 L 848.796875 676.234375 L 848.796875 670.863281 L 925.847656 670.863281 L 925.847656 676.234375 " fill-opacity="1" fill-rule="nonzero"/><path fill="#ffffff" d="M 1076.269531 676.234375 L 964.738281 676.234375 L 964.738281 670.863281 L 1076.269531 670.863281 L 1076.269531 676.234375 " fill-opacity="1" fill-rule="nonzero"/><path fill="#ffffff" d="M 952.988281 676.234375 L 933.179688 676.234375 L 933.179688 670.863281 L 952.988281 670.863281 L 952.988281 676.234375 " fill-opacity="1" fill-rule="nonzero"/><path fill="#ffffff" d="M 942.722656 708.761719 L 865.675781 708.761719 L 865.675781 703.375 L 942.722656 703.375 L 942.722656 708.761719 " fill-opacity="1" fill-rule="nonzero"/><path fill="#ffffff" d="M 1093.144531 708.761719 L 981.613281 708.761719 L 981.613281 703.375 L 1093.144531 703.375 L 1093.144531 708.761719 " fill-opacity="1" fill-rule="nonzero"/><path fill="#ffffff" d="M 969.871094 708.761719 L 950.058594 708.761719 L 950.058594 703.375 L 969.871094 703.375 L 969.871094 708.761719 " fill-opacity="1" fill-rule="nonzero"/><path fill="#ffffff" d="M 914.84375 685.761719 L 865.675781 685.761719 L 865.675781 691.15625 L 914.84375 691.15625 L 914.84375 685.761719 " fill-opacity="1" fill-rule="nonzero"/><path fill="#ffffff" d="M 923.640625 685.761719 L 923.640625 691.15625 L 942.722656 691.15625 L 942.722656 685.761719 L 923.640625 685.761719 " fill-opacity="1" fill-rule="nonzero"/><path fill="#ffffff" d="M 1020.5 691.15625 L 981.613281 691.15625 L 981.613281 685.761719 L 1020.5 685.761719 L 1020.5 691.15625 " fill-opacity="1" fill-rule="nonzero"/><path fill="#ffffff" d="M 969.871094 691.15625 L 950.058594 691.15625 L 950.058594 685.761719 L 969.871094 685.761719 L 969.871094 691.15625 " fill-opacity="1" fill-rule="nonzero"/><path fill="#ffffff" d="M 978.675781 729.054688 L 865.675781 729.054688 L 865.675781 723.675781 L 978.675781 723.675781 L 978.675781 729.054688 " fill-opacity="1" fill-rule="nonzero"/><path fill="#ffffff" d="M 1071.863281 729.054688 L 985.28125 729.054688 L 985.28125 723.675781 L 1071.863281 723.675781 L 1071.863281 729.054688 " fill-opacity="1" fill-rule="nonzero"/><path fill="#ffffff" d="M 1076.269531 911.996094 L 1076.269531 917.375 L 1092.902344 917.375 L 1092.902344 911.996094 L 1076.269531 911.996094 " fill-opacity="1" fill-rule="nonzero"/><path fill="#ffffff" d="M 977.699219 874.710938 L 928.539062 874.710938 L 928.539062 880.097656 L 977.699219 880.097656 L 977.699219 874.710938 " fill-opacity="1" fill-rule="nonzero"/><path fill="#ffffff" d="M 986.507812 874.710938 L 986.507812 880.097656 L 1005.585938 880.097656 L 1005.585938 874.710938 L 986.507812 874.710938 " fill-opacity="1" fill-rule="nonzero"/><path fill="#ffffff" d="M 1083.363281 880.097656 L 1044.472656 880.097656 L 1044.472656 874.710938 L 1083.363281 874.710938 L 1083.363281 880.097656 " fill-opacity="1" fill-rule="nonzero"/><path fill="#ffffff" d="M 1032.742188 880.097656 L 1012.921875 880.097656 L 1012.921875 874.710938 L 1032.742188 874.710938 L 1032.742188 880.097656 " fill-opacity="1" fill-rule="nonzero"/><path fill="#ffffff" d="M 994.082031 894.394531 L 928.535156 894.394531 L 928.535156 899.769531 L 994.082031 899.769531 L 994.082031 894.394531 " fill-opacity="1" fill-rule="nonzero"/><path fill="#ffffff" d="M 1000.933594 894.394531 L 1000.933594 899.769531 L 1092.902344 899.769531 L 1092.902344 894.394531 L 1000.933594 894.394531 " fill-opacity="1" fill-rule="nonzero"/><path fill="#ffffff" d="M 956.914062 911.996094 L 928.535156 911.996094 L 928.535156 917.375 L 956.914062 917.375 L 956.914062 911.996094 " fill-opacity="1" fill-rule="nonzero"/><path fill="#ffffff" d="M 965.222656 911.996094 L 965.222656 917.375 L 994.082031 917.375 L 994.082031 911.996094 L 965.222656 911.996094 " fill-opacity="1" fill-rule="nonzero"/><path fill="#ffffff" d="M 1069.902344 911.996094 L 1000.933594 911.996094 L 1000.933594 917.375 L 1069.902344 917.375 L 1069.902344 911.996094 " fill-opacity="1" fill-rule="nonzero"/><path fill="#6097af" d="M 1118.019531 1096.707031 L 959.128906 1096.707031 L 975.636719 1019.335938 L 1134.535156 1019.335938 L 1118.019531 1096.707031 " fill-opacity="1" fill-rule="nonzero"/><path fill="#6097af" d="M 1126.800781 1136.933594 C 1103.054688 1133.671875 1117.355469 1096.707031 1117.355469 1096.707031 L 959.128906 1096.707031 C 959.128906 1096.707031 957.601562 1104.488281 956.390625 1111.382812 C 954.296875 1123.375 951.46875 1136.933594 968.566406 1136.933594 L 1126.800781 1136.933594 " fill-opacity="1" fill-rule="nonzero"/><path fill="#88b8cc" d="M 1131.648438 1096.707031 L 972.75 1096.707031 L 989.265625 1019.335938 L 1148.160156 1019.335938 L 1131.648438 1096.707031 " fill-opacity="1" fill-rule="nonzero"/><path fill="#88b8cc" d="M 1140.429688 1136.933594 C 1123.363281 1133.128906 1131.648438 1096.707031 1131.648438 1096.707031 L 972.75 1096.707031 C 972.75 1096.707031 970.359375 1108.542969 968.933594 1116.824219 C 966.605469 1130.367188 970.296875 1136.933594 982.207031 1136.933594 L 1140.429688 1136.933594 " fill-opacity="1" fill-rule="nonzero"/><path fill="#6097af" d="M 1193.996094 1123.167969 L 965.933594 1123.167969 L 971.171875 1136.933594 L 1193.996094 1136.933594 C 1197.226562 1136.933594 1199.839844 1133.847656 1199.839844 1130.039062 C 1199.839844 1126.246094 1197.226562 1123.167969 1193.996094 1123.167969 " fill-opacity="1" fill-rule="nonzero"/><path fill="#9dd6ec" d="M 1193.996094 1123.167969 L 1044.078125 1123.167969 C 1047.316406 1123.167969 1049.925781 1126.246094 1049.925781 1130.039062 C 1049.925781 1133.847656 1047.316406 1136.933594 1044.078125 1136.933594 L 1193.996094 1136.933594 C 1197.226562 1136.933594 1199.839844 1133.847656 1199.839844 1130.039062 C 1199.839844 1126.246094 1197.226562 1123.167969 1193.996094 1123.167969 " fill-opacity="1" fill-rule="nonzero"/><g clip-path="url(#35ef7fd3c9)"><path fill="#c77d5d" d="M 1128.71875 1182.34375 L 2290.277344 1182.34375 L 2290.277344 1136.941406 L 1128.71875 1136.941406 L 1128.71875 1182.34375 " fill-opacity="1" fill-rule="nonzero"/></g><g clip-path="url(#42e64972c9)"><path fill="#a55c4a" d="M 1128.722656 1182.339844 L 709.933594 1182.339844 L 709.933594 1136.933594 L 1128.722656 1136.933594 L 1128.722656 1182.339844 " fill-opacity="1" fill-rule="nonzero"/></g><g clip-path="url(#c6d0a17327)"><path fill="#1f2338" d="M 1912.554688 1998.300781 L 1871.484375 1998.300781 L 1871.484375 1182.339844 L 1912.554688 1182.339844 L 1912.554688 1998.300781 " fill-opacity="1" fill-rule="nonzero"/></g><g clip-path="url(#7d209986db)"><path fill="#1f2338" d="M 1871.484375 1998.300781 L 1871.484375 1956.445312 L 2290.277344 1956.445312 L 2290.277344 1998.300781 L 1871.484375 1998.300781 " fill-opacity="1" fill-rule="nonzero"/></g><g clip-path="url(#6ddcfff79c)"><path fill="#1f2338" d="M 2290.277344 1998.300781 L 2249.203125 1998.300781 L 2249.203125 1182.34375 L 2290.277344 1182.34375 L 2290.277344 1998.300781 " fill-opacity="1" fill-rule="nonzero"/></g><path fill="#f78e8c" d="M 1970.6875 951.148438 C 1970.6875 951.148438 1973.609375 1069.5 1991.609375 1130.152344 C 1991.609375 1130.152344 1999.367188 1215.765625 2067.300781 1180.679688 C 2067.300781 1180.679688 2088.21875 1159.644531 2088.167969 957.476562 C 2088.167969 957.476562 2018.566406 893.574219 1970.6875 951.148438 " fill-opacity="1" fill-rule="nonzero"/><path fill="#22377c" d="M 1685.933594 1116.945312 C 1685.933594 1127.976562 1676.980469 1136.933594 1665.957031 1136.933594 L 1245.253906 1136.933594 C 1234.21875 1136.933594 1225.265625 1127.976562 1225.265625 1116.945312 L 1176.238281 849.929688 C 1176.238281 838.890625 1185.191406 829.9375 1196.226562 829.9375 L 1616.917969 829.9375 C 1627.964844 829.9375 1636.910156 838.890625 1636.910156 849.929688 L 1685.933594 1116.945312 " fill-opacity="1" fill-rule="nonzero"/><path fill="#172657" d="M 1662.511719 1081.449219 C 1662.511719 1090.515625 1655.15625 1097.851562 1646.109375 1097.851562 L 1256.3125 1097.851562 C 1247.257812 1097.851562 1239.914062 1090.515625 1239.914062 1081.449219 L 1199.667969 862.28125 C 1199.667969 853.230469 1207.007812 845.882812 1216.074219 845.882812 L 1605.863281 845.882812 C 1614.917969 845.882812 1622.261719 853.230469 1622.261719 862.28125 L 1662.511719 1081.449219 " fill-opacity="1" fill-rule="nonzero"/><path fill="#111c41" d="M 1223.6875 1107.753906 L 1901.625 1107.753906 C 1901.625 1107.753906 1921.042969 1107.761719 1928.617188 1115.492188 L 1947.789062 1136.933594 L 1230.34375 1136.933594 L 1223.6875 1107.753906 " fill-opacity="1" fill-rule="nonzero"/><path fill="#2858b0" d="M 1928.617188 1115.492188 C 1921.042969 1107.761719 1901.625 1107.753906 1901.625 1107.753906 L 1520.164062 1107.753906 C 1520.164062 1107.753906 1539.585938 1107.761719 1547.167969 1115.492188 L 1566.34375 1136.933594 L 1947.789062 1136.933594 L 1928.617188 1115.492188 " fill-opacity="1" fill-rule="nonzero"/><path fill="#274495" d="M 1818.050781 1136.933594 L 1713.96875 1136.933594 L 1705.753906 1122.339844 L 1809.84375 1122.339844 L 1818.050781 1136.933594 " fill-opacity="1" fill-rule="nonzero"/><path fill="#15151e" d="M 1652.789062 1090.640625 L 1255.289062 1090.640625 L 1212.875 871.277344 L 1610.371094 871.277344 L 1652.789062 1090.640625 " fill-opacity="1" fill-rule="nonzero"/><path fill="#ffffff" d="M 1230.835938 871.753906 L 1273.257812 1091.105469 L 1278.089844 1090.179688 L 1235.664062 870.816406 " fill-opacity="1" fill-rule="nonzero"/><path fill="#323660" d="M 1610.339844 871.191406 L 1212.855469 871.191406 L 1209.355469 853.101562 L 1606.847656 853.101562 L 1610.339844 871.191406 " fill-opacity="1" fill-rule="nonzero"/><path fill="#ed3947" d="M 1565.601562 862.148438 C 1566.273438 865.53125 1564.054688 868.28125 1560.652344 868.28125 C 1557.257812 868.28125 1553.976562 865.53125 1553.324219 862.148438 C 1552.660156 858.753906 1554.882812 855.992188 1558.273438 855.992188 C 1561.664062 855.992188 1564.964844 858.753906 1565.601562 862.148438 " fill-opacity="1" fill-rule="nonzero"/><path fill="#80cc28" d="M 1581.796875 862.148438 C 1582.445312 865.53125 1580.238281 868.28125 1576.835938 868.28125 C 1573.441406 868.28125 1570.167969 865.53125 1569.515625 862.148438 C 1568.859375 858.753906 1571.066406 855.992188 1574.460938 855.992188 C 1577.863281 855.992188 1581.136719 858.753906 1581.796875 862.148438 " fill-opacity="1" fill-rule="nonzero"/><path fill="#ebb72e" d="M 1597.824219 862.148438 C 1598.484375 865.53125 1596.265625 868.28125 1592.871094 868.28125 C 1589.480469 868.28125 1586.195312 865.53125 1585.535156 862.148438 C 1584.886719 858.753906 1587.105469 855.992188 1590.488281 855.992188 C 1593.890625 855.992188 1597.171875 858.753906 1597.824219 862.148438 " fill-opacity="1" fill-rule="nonzero"/><path fill="#ffffff" d="M 1230.078125 879.671875 L 1219.292969 879.671875 L 1218.652344 876.378906 L 1229.441406 876.378906 L 1230.078125 879.671875 " fill-opacity="1" fill-rule="nonzero"/><path fill="#ffffff" d="M 1232.171875 890.460938 L 1221.375 890.460938 L 1220.746094 887.164062 L 1231.53125 887.164062 L 1232.171875 890.460938 " fill-opacity="1" fill-rule="nonzero"/><path fill="#ffffff" d="M 1234.25 901.25 L 1223.464844 901.25 L 1222.828125 897.945312 L 1233.613281 897.945312 L 1234.25 901.25 " fill-opacity="1" fill-rule="nonzero"/><path fill="#ffffff" d="M 1236.339844 912.039062 L 1225.546875 912.039062 L 1224.910156 908.746094 L 1235.699219 908.746094 L 1236.339844 912.039062 " fill-opacity="1" fill-rule="nonzero"/><path fill="#ffffff" d="M 1238.425781 922.828125 L 1227.636719 922.828125 L 1226.996094 919.535156 L 1237.792969 919.535156 L 1238.425781 922.828125 " fill-opacity="1" fill-rule="nonzero"/><path fill="#ffffff" d="M 1240.511719 933.617188 L 1229.726562 933.617188 L 1229.085938 930.3125 L 1239.871094 930.3125 L 1240.511719 933.617188 " fill-opacity="1" fill-rule="nonzero"/><path fill="#ffffff" d="M 1242.597656 944.40625 L 1231.808594 944.40625 L 1231.167969 941.101562 L 1241.957031 941.101562 L 1242.597656 944.40625 " fill-opacity="1" fill-rule="nonzero"/><path fill="#ffffff" d="M 1244.6875 955.195312 L 1233.894531 955.195312 L 1233.253906 951.894531 L 1244.046875 951.894531 L 1244.6875 955.195312 " fill-opacity="1" fill-rule="nonzero"/><path fill="#ffffff" d="M 1246.773438 965.972656 L 1235.984375 965.972656 L 1235.34375 962.679688 L 1246.132812 962.679688 L 1246.773438 965.972656 " fill-opacity="1" fill-rule="nonzero"/><path fill="#ffffff" d="M 1248.851562 976.765625 L 1238.070312 976.765625 L 1237.4375 973.46875 L 1248.21875 973.46875 L 1248.851562 976.765625 " fill-opacity="1" fill-rule="nonzero"/><path fill="#ffffff" d="M 1250.945312 987.554688 L 1240.152344 987.554688 L 1239.511719 984.261719 L 1250.304688 984.261719 L 1250.945312 987.554688 " fill-opacity="1" fill-rule="nonzero"/><path fill="#ffffff" d="M 1253.023438 998.339844 L 1242.242188 998.339844 L 1241.601562 995.046875 L 1252.394531 995.046875 L 1253.023438 998.339844 " fill-opacity="1" fill-rule="nonzero"/><path fill="#ffffff" d="M 1255.117188 1009.132812 L 1244.328125 1009.132812 L 1243.691406 1005.839844 L 1254.484375 1005.839844 L 1255.117188 1009.132812 " fill-opacity="1" fill-rule="nonzero"/><path fill="#ffffff" d="M 1257.207031 1019.921875 L 1246.410156 1019.921875 L 1245.777344 1016.625 L 1256.5625 1016.625 L 1257.207031 1019.921875 " fill-opacity="1" fill-rule="nonzero"/><path fill="#ffffff" d="M 1259.285156 1030.710938 L 1248.5 1030.710938 L 1247.863281 1027.414062 L 1258.648438 1027.414062 L 1259.285156 1030.710938 " fill-opacity="1" fill-rule="nonzero"/><path fill="#ffffff" d="M 1261.382812 1041.5 L 1250.589844 1041.5 L 1249.953125 1038.207031 L 1260.742188 1038.207031 L 1261.382812 1041.5 " fill-opacity="1" fill-rule="nonzero"/><path fill="#ffffff" d="M 1263.460938 1052.277344 L 1252.675781 1052.277344 L 1252.039062 1048.984375 L 1262.828125 1048.984375 L 1263.460938 1052.277344 " fill-opacity="1" fill-rule="nonzero"/><path fill="#ffffff" d="M 1265.546875 1063.078125 L 1254.757812 1063.078125 L 1254.125 1059.785156 L 1264.910156 1059.785156 L 1265.546875 1063.078125 " fill-opacity="1" fill-rule="nonzero"/><path fill="#ffffff" d="M 1267.628906 1073.855469 L 1256.847656 1073.855469 L 1256.210938 1070.5625 L 1267 1070.5625 L 1267.628906 1073.855469 " fill-opacity="1" fill-rule="nonzero"/><path fill="#ffffff" d="M 1269.722656 1084.648438 L 1258.933594 1084.648438 L 1258.296875 1081.351562 L 1269.085938 1081.351562 L 1269.722656 1084.648438 " fill-opacity="1" fill-rule="nonzero"/><path fill="#ed3947" d="M 1283.421875 879.671875 L 1241.457031 879.671875 L 1240.824219 876.378906 L 1282.785156 876.378906 L 1283.421875 879.671875 " fill-opacity="1" fill-rule="nonzero"/><path fill="#ed3947" d="M 1350.316406 999.992188 L 1308.355469 999.992188 L 1307.722656 996.683594 L 1349.675781 996.683594 L 1350.316406 999.992188 " fill-opacity="1" fill-rule="nonzero"/><path fill="#ed3947" d="M 1321.832031 987.554688 L 1305.957031 987.554688 L 1305.3125 984.261719 L 1321.199219 984.261719 L 1321.832031 987.554688 " fill-opacity="1" fill-rule="nonzero"/><path fill="#3bbec5" d="M 1259.433594 890.460938 L 1243.546875 890.460938 L 1242.914062 887.164062 L 1258.800781 887.164062 L 1259.433594 890.460938 " fill-opacity="1" fill-rule="nonzero"/><path fill="#3bbec5" d="M 1269.164062 901.25 L 1245.632812 901.25 L 1245 897.945312 L 1268.527344 897.945312 L 1269.164062 901.25 " fill-opacity="1" fill-rule="nonzero"/><path fill="#ffffff" d="M 1322.496094 912.039062 L 1275.296875 912.039062 L 1274.65625 908.746094 L 1321.863281 908.746094 L 1322.496094 912.039062 " fill-opacity="1" fill-rule="nonzero"/><path fill="#ffffff" d="M 1414.648438 912.039062 L 1346.324219 912.039062 L 1345.6875 908.746094 L 1414.011719 908.746094 L 1414.648438 912.039062 " fill-opacity="1" fill-rule="nonzero"/><path fill="#ffffff" d="M 1339.128906 912.039062 L 1326.996094 912.039062 L 1326.355469 908.746094 L 1338.488281 908.746094 L 1339.128906 912.039062 " fill-opacity="1" fill-rule="nonzero"/><path fill="#ffffff" d="M 1336.695312 931.96875 L 1289.488281 931.96875 L 1288.847656 928.667969 L 1336.058594 928.667969 L 1336.695312 931.96875 " fill-opacity="1" fill-rule="nonzero"/><path fill="#ffffff" d="M 1428.84375 931.96875 L 1360.515625 931.96875 L 1359.882812 928.667969 L 1428.203125 928.667969 L 1428.84375 931.96875 " fill-opacity="1" fill-rule="nonzero"/><path fill="#ffffff" d="M 1353.320312 931.96875 L 1341.183594 931.96875 L 1340.546875 928.667969 L 1352.679688 928.667969 L 1353.320312 931.96875 " fill-opacity="1" fill-rule="nonzero"/><path fill="#ffffff" d="M 1316.886719 917.875 L 1286.765625 917.875 L 1287.40625 921.183594 L 1317.519531 921.183594 L 1316.886719 917.875 " fill-opacity="1" fill-rule="nonzero"/><path fill="#ffffff" d="M 1322.277344 917.875 L 1322.914062 921.183594 L 1334.605469 921.183594 L 1333.964844 917.875 L 1322.277344 917.875 " fill-opacity="1" fill-rule="nonzero"/><path fill="#ffffff" d="M 1382.253906 921.183594 L 1358.429688 921.183594 L 1357.789062 917.875 L 1381.617188 917.875 L 1382.253906 921.183594 " fill-opacity="1" fill-rule="nonzero"/><path fill="#ffffff" d="M 1351.234375 921.183594 L 1339.09375 921.183594 L 1338.460938 917.875 L 1350.597656 917.875 L 1351.234375 921.183594 " fill-opacity="1" fill-rule="nonzero"/><path fill="#ffffff" d="M 1377.785156 1033.628906 L 1347.664062 1033.628906 L 1348.304688 1036.933594 L 1378.421875 1036.933594 L 1377.785156 1033.628906 " fill-opacity="1" fill-rule="nonzero"/><path fill="#ffffff" d="M 1383.179688 1033.628906 L 1383.8125 1036.933594 L 1395.503906 1036.933594 L 1394.867188 1033.628906 L 1383.179688 1033.628906 " fill-opacity="1" fill-rule="nonzero"/><path fill="#ffffff" d="M 1443.160156 1036.933594 L 1419.332031 1036.933594 L 1418.6875 1033.628906 L 1442.515625 1033.628906 L 1443.160156 1036.933594 " fill-opacity="1" fill-rule="nonzero"/><path fill="#ffffff" d="M 1412.128906 1036.933594 L 1400 1036.933594 L 1399.367188 1033.628906 L 1411.5 1033.628906 L 1412.128906 1036.933594 " fill-opacity="1" fill-rule="nonzero"/><path fill="#00adef" d="M 1281.296875 901.25 L 1273.207031 901.25 L 1272.566406 897.945312 L 1280.664062 897.945312 L 1281.296875 901.25 " fill-opacity="1" fill-rule="nonzero"/><path fill="#3bbec5" d="M 1326.3125 1009.132812 L 1310.425781 1009.132812 L 1309.792969 1005.839844 L 1325.675781 1005.839844 L 1326.3125 1009.132812 " fill-opacity="1" fill-rule="nonzero"/><path fill="#3bbec5" d="M 1336.042969 1019.921875 L 1312.511719 1019.921875 L 1311.878906 1016.625 L 1335.398438 1016.625 L 1336.042969 1019.921875 " fill-opacity="1" fill-rule="nonzero"/><path fill="#00adef" d="M 1348.175781 1019.921875 L 1340.082031 1019.921875 L 1339.449219 1016.625 L 1347.542969 1016.625 L 1348.175781 1019.921875 " fill-opacity="1" fill-rule="nonzero"/><path fill="#3bbec5" d="M 1337.46875 1066.824219 L 1321.582031 1066.824219 L 1320.949219 1063.53125 L 1336.828125 1063.53125 L 1337.46875 1066.824219 " fill-opacity="1" fill-rule="nonzero"/><path fill="#3bbec5" d="M 1347.195312 1077.605469 L 1323.671875 1077.605469 L 1323.035156 1074.3125 L 1346.554688 1074.3125 L 1347.195312 1077.605469 " fill-opacity="1" fill-rule="nonzero"/><path fill="#00adef" d="M 1359.335938 1077.605469 L 1351.238281 1077.605469 L 1350.601562 1074.3125 L 1358.699219 1074.3125 L 1359.335938 1077.605469 " fill-opacity="1" fill-rule="nonzero"/><path fill="#3bbec5" d="M 1279.597656 955.195312 L 1256.066406 955.195312 L 1255.425781 951.894531 L 1278.957031 951.894531 L 1279.597656 955.195312 " fill-opacity="1" fill-rule="nonzero"/><path fill="#00adef" d="M 1291.734375 955.195312 L 1283.640625 955.195312 L 1283.003906 951.894531 L 1291.097656 951.894531 L 1291.734375 955.195312 " fill-opacity="1" fill-rule="nonzero"/><path fill="#80cc28" d="M 1300.203125 879.671875 L 1289.414062 879.671875 L 1288.773438 876.378906 L 1299.566406 876.378906 L 1300.203125 879.671875 " fill-opacity="1" fill-rule="nonzero"/><path fill="#80cc28" d="M 1332.222656 969.277344 L 1286.363281 969.277344 L 1285.726562 965.972656 L 1331.582031 965.972656 L 1332.222656 969.277344 " fill-opacity="1" fill-rule="nonzero"/><path fill="#ffffff" d="M 1361.121094 944.40625 L 1291.894531 944.40625 L 1291.253906 941.101562 L 1360.484375 941.101562 L 1361.121094 944.40625 " fill-opacity="1" fill-rule="nonzero"/><path fill="#ffffff" d="M 1418.210938 944.40625 L 1365.167969 944.40625 L 1364.53125 941.101562 L 1417.570312 941.101562 L 1418.210938 944.40625 " fill-opacity="1" fill-rule="nonzero"/><path fill="#ffffff" d="M 1390.148438 1045.691406 L 1349.992188 1045.691406 L 1350.632812 1048.984375 L 1390.785156 1048.984375 L 1390.148438 1045.691406 " fill-opacity="1" fill-rule="nonzero"/><path fill="#ffffff" d="M 1394.347656 1045.691406 L 1394.984375 1048.984375 L 1451.324219 1048.984375 L 1450.683594 1045.691406 L 1394.347656 1045.691406 " fill-opacity="1" fill-rule="nonzero"/><path fill="#ffffff" d="M 1369.460938 1056.476562 L 1352.082031 1056.476562 L 1352.714844 1059.785156 L 1370.101562 1059.785156 L 1369.460938 1056.476562 " fill-opacity="1" fill-rule="nonzero"/><path fill="#ffffff" d="M 1374.554688 1056.476562 L 1375.195312 1059.785156 L 1392.871094 1059.785156 L 1392.238281 1056.476562 L 1374.554688 1056.476562 " fill-opacity="1" fill-rule="nonzero"/><path fill="#ffffff" d="M 1442.585938 1056.476562 L 1443.226562 1059.785156 L 1453.414062 1059.785156 L 1452.777344 1056.476562 L 1442.585938 1056.476562 " fill-opacity="1" fill-rule="nonzero"/><path fill="#ffffff" d="M 1438.691406 1056.476562 L 1396.433594 1056.476562 L 1397.074219 1059.785156 L 1439.328125 1059.785156 L 1438.691406 1056.476562 " fill-opacity="1" fill-rule="nonzero"/><path fill="#984b67" d="M 2048.964844 974.621094 C 2066.558594 970.121094 2083.304688 963.679688 2099.4375 955.886719 C 2099.011719 952.597656 2098.621094 949.296875 2098.277344 946 C 2095.328125 918.996094 2098.1875 889.625 2091.421875 863.085938 C 2081.871094 825.523438 2049.5 730.320312 1993.828125 789.941406 C 1973.46875 811.746094 1968.964844 842.886719 1963.453125 870.070312 C 1956.277344 905.492188 1951.660156 940.75 1949.058594 976.582031 C 1982.160156 982.570312 2016.109375 983.042969 2048.964844 974.621094 " fill-opacity="1" fill-rule="nonzero"/><g clip-path="url(#15e390a9d0)"><path fill="#1f2338" d="M 751 1982.894531 L 709.933594 1982.894531 L 709.933594 1182.339844 L 751 1182.339844 L 751 1982.894531 " fill-opacity="1" fill-rule="nonzero"/></g><g clip-path="url(#c4d3988bb2)"><path fill="#1f2338" d="M 709.933594 1998.300781 L 709.933594 1956.445312 L 1128.722656 1956.445312 L 1128.722656 1998.300781 L 709.933594 1998.300781 " fill-opacity="1" fill-rule="nonzero"/></g><path fill="#1f2338" d="M 1128.722656 1982.894531 L 1087.65625 1982.894531 L 1087.65625 1182.339844 L 1128.722656 1182.339844 L 1128.722656 1982.894531 " fill-opacity="1" fill-rule="nonzero"/><path fill="#f78e8c" d="M 2075.644531 958.550781 C 2075.644531 958.550781 2081.597656 1035.714844 2100.675781 1096.03125 C 2100.675781 1096.03125 2128.464844 1203.550781 2176.765625 1117.359375 C 2176.765625 1117.359375 2196.121094 1057.640625 2193.222656 962.761719 C 2193.222656 962.761719 2122.488281 900.125 2075.644531 958.550781 " fill-opacity="1" fill-rule="nonzero"/><path fill="#984b67" d="M 2203.804688 998.3125 C 2210.601562 960.378906 2200.539062 900.03125 2193.511719 862.144531 C 2188.695312 836.066406 2183.480469 819.039062 2172.917969 794.535156 C 2151.539062 744.882812 2071.058594 753.617188 2071.058594 753.617188 C 2046.90625 779.050781 2035.453125 844.851562 2037.964844 882.425781 C 2039.726562 908.894531 2045.765625 983.128906 2047.035156 1014.808594 C 2096.390625 1029.65625 2162.066406 1030.53125 2203.804688 998.3125 " fill-opacity="1" fill-rule="nonzero"/><path fill="#f78e8c" d="M 1501.003906 1911.496094 L 1504.050781 1813.425781 L 1427.203125 1813.425781 L 1438.453125 1902.726562 L 1501.003906 1911.496094 " fill-opacity="1" fill-rule="nonzero"/><g clip-path="url(#041d884f0f)"><path fill="#1c0c19" d="M 1501.003906 1911.496094 L 1518.242188 1998.300781 L 1313.796875 1998.300781 C 1313.796875 1998.300781 1308.601562 1984.996094 1324.738281 1973.773438 L 1401.351562 1938.730469 L 1438.453125 1902.726562 L 1501.003906 1911.496094 " fill-opacity="1" fill-rule="nonzero"/></g><path fill="#3e526e" d="M 1434.902344 1491.359375 L 1390.304688 1855.714844 C 1390.304688 1855.714844 1449.242188 1897.601562 1510.570312 1906.167969 L 1626.121094 1491.359375 L 1434.902344 1491.359375 " fill-opacity="1" fill-rule="nonzero"/><path fill="#f78e8c" d="M 1544.59375 1078.984375 C 1537.878906 1075.257812 1518.648438 1068.71875 1510.332031 1071.25 C 1503.59375 1073.304688 1490.785156 1079.171875 1484.148438 1081.796875 C 1471.058594 1086.960938 1459.421875 1094.933594 1447.902344 1098.472656 C 1427.191406 1104.851562 1414.734375 1111.007812 1405.910156 1115.15625 C 1391.265625 1122.054688 1379.070312 1133.976562 1390.167969 1136.441406 C 1404.304688 1139.597656 1438.003906 1137.378906 1452.21875 1138.257812 C 1471.78125 1139.5 1491.386719 1137.941406 1510.902344 1139.160156 C 1529.148438 1140.296875 1549.980469 1140.898438 1567.269531 1137.378906 C 1593.328125 1132.042969 1594.402344 1107.832031 1574.042969 1095.265625 C 1555 1083.523438 1574.042969 1095.265625 1544.59375 1078.984375 " fill-opacity="1" fill-rule="nonzero"/><path fill="#f78e8c" d="M 1341.199219 1911.496094 L 1368.6875 1813.425781 L 1291.835938 1813.425781 L 1278.644531 1902.726562 L 1341.199219 1911.496094 " fill-opacity="1" fill-rule="nonzero"/><g clip-path="url(#1c53fdfde0)"><path fill="#251224" d="M 1341.199219 1911.496094 L 1358.445312 1998.300781 L 1153.988281 1998.300781 C 1153.988281 1998.300781 1148.796875 1984.996094 1164.929688 1973.773438 L 1241.539062 1938.730469 L 1278.644531 1902.726562 L 1341.199219 1911.496094 " fill-opacity="1" fill-rule="nonzero"/></g><path fill="#455c7c" d="M 1350.75 1906.171875 L 1572.789062 1496.519531 L 1871.753906 1496.519531 C 1871.753906 1496.519531 2050.65625 1521.285156 2102.347656 1461.453125 C 2102.347656 1461.453125 2147.554688 1399.820312 2119.003906 1247.394531 L 1805.1875 1247.394531 L 1791.058594 1296.371094 L 1502.96875 1315.699219 C 1417.828125 1315.699219 1401.179688 1386.695312 1401.179688 1386.695312 L 1230.5 1855.71875 C 1230.5 1855.71875 1289.4375 1897.601562 1350.75 1906.171875 " fill-opacity="1" fill-rule="nonzero"/><path fill="#f78e8c" d="M 1973.183594 633.265625 C 1951.152344 656.894531 1918.730469 691.5 1888.011719 689.355469 C 1858.363281 687.289062 1849.667969 631.3125 1843.257812 607.664062 C 1841.3125 600.550781 1839.929688 593.316406 1839.132812 586.027344 C 1838.113281 576.402344 1835.925781 566.800781 1834.625 557.316406 L 1834.527344 556.675781 C 1834.121094 553.730469 1833.8125 550.785156 1833.648438 547.863281 C 1833.570312 546.511719 1833.539062 545.148438 1833.503906 543.804688 C 1833.453125 534.042969 1835.273438 524.445312 1841.300781 515.089844 C 1852.976562 496.984375 1876.996094 483.539062 1899.613281 482.097656 C 1931.035156 480.085938 1964.90625 500.808594 1978.804688 526.390625 C 1996.601562 559.148438 2001.140625 603.308594 1973.183594 633.265625 " fill-opacity="1" fill-rule="nonzero"/><path fill="#f78e8c" d="M 1907.179688 675.566406 L 1914.402344 724.238281 L 2015.097656 708.179688 L 1999.542969 659.597656 C 1999.542969 659.597656 1974.585938 625.648438 1907.179688 675.566406 " fill-opacity="1" fill-rule="nonzero"/><path fill="#39151d" d="M 1877.917969 582.824219 C 1889.28125 598.28125 1879.628906 554.015625 1897.132812 549.269531 C 1909.527344 545.910156 1918.558594 556.117188 1922.941406 567.753906 C 1928.894531 583.585938 1911.238281 586.742188 1911.023438 598.757812 C 1910.871094 607.175781 1926.65625 646.628906 1929.289062 654.308594 C 1937.808594 679.140625 1969.40625 681.496094 1988.921875 669.15625 C 2005.894531 658.441406 2002.839844 649.113281 2003.65625 643.136719 C 2010.84375 591.34375 2010.488281 591.253906 2009.78125 541.585938 C 2009.453125 519.597656 2008.871094 502.246094 1990.128906 486.277344 C 1979.617188 477.332031 1969.640625 479.449219 1958.601562 473.191406 C 1947.304688 466.796875 1944.023438 457.070312 1930.371094 453.710938 C 1903.234375 447.039062 1892.5625 465.644531 1869.285156 468.488281 C 1853.53125 470.414062 1824.070312 474.367188 1812.40625 481.96875 C 1796.460938 492.347656 1786.285156 504.808594 1794.21875 526.328125 C 1801.890625 547.121094 1853.050781 548.953125 1877.917969 582.824219 " fill-opacity="1" fill-rule="nonzero"/><path fill="#f78e8c" d="M 1921.328125 561.824219 C 1927.964844 572.71875 1927.910156 589.296875 1918.691406 600.484375 C 1906.179688 615.707031 1892.753906 606.847656 1885.691406 594.804688 C 1880.003906 585.097656 1875.347656 565.511719 1886.574219 554.667969 C 1897.152344 544.453125 1915.902344 552.878906 1921.328125 561.824219 " fill-opacity="1" fill-rule="nonzero"/><path fill="#592630" d="M 1893.320312 561.898438 C 1892.019531 564.378906 1891.496094 567.371094 1891.496094 570.59375 C 1891.496094 575.78125 1892.890625 581.621094 1895.621094 586.703125 C 1898.351562 591.765625 1902.503906 596.175781 1908.222656 597.867188 C 1909.535156 598.246094 1910.894531 597.496094 1911.28125 596.195312 C 1911.671875 594.886719 1910.914062 593.515625 1909.601562 593.140625 C 1905.601562 591.984375 1902.28125 588.679688 1899.949219 584.359375 C 1897.628906 580.089844 1896.398438 574.886719 1896.410156 570.59375 C 1896.398438 567.925781 1896.894531 565.636719 1897.671875 564.195312 C 1898.300781 563.003906 1897.847656 561.507812 1896.640625 560.867188 C 1895.445312 560.242188 1893.964844 560.691406 1893.320312 561.898438 " fill-opacity="1" fill-rule="nonzero"/><path fill="#592630" d="M 1907.945312 567.828125 C 1905.574219 568.300781 1902.792969 569.148438 1900.210938 570.519531 C 1897.648438 571.898438 1895.191406 573.789062 1893.914062 576.667969 C 1893.359375 577.910156 1893.925781 579.363281 1895.160156 579.90625 C 1896.402344 580.449219 1897.867188 579.898438 1898.410156 578.65625 C 1898.964844 577.3125 1900.503906 575.933594 1902.519531 574.855469 C 1904.527344 573.789062 1906.945312 573.039062 1908.890625 572.652344 C 1910.226562 572.398438 1911.105469 571.105469 1910.835938 569.761719 C 1910.574219 568.4375 1909.273438 567.566406 1907.945312 567.828125 " fill-opacity="1" fill-rule="nonzero"/><path fill="#984b67" d="M 2149.507812 770.484375 C 2159.371094 785.640625 2171.925781 789.5625 2171.925781 820.503906 L 2118.132812 1229.0625 L 1887.476562 1229.0625 L 1860.425781 1033.480469 L 1791.296875 954.453125 C 1761.300781 845.492188 1791.042969 807.488281 1791.042969 807.488281 C 1805.722656 797.726562 1855.652344 761.867188 1868.863281 750.683594 C 1886.570312 735.71875 1900.429688 724.664062 1911.265625 716.328125 C 1922.714844 707.527344 1941.96875 708.171875 1955.613281 705.386719 C 1969.84375 702.488281 1997.632812 696.746094 2011.410156 696.652344 L 2149.507812 770.484375 " fill-opacity="1" fill-rule="nonzero"/><path fill="#984b67" d="M 2142.234375 1361.539062 C 2156.113281 1328.964844 2157.765625 1226.816406 2159.871094 1160.089844 C 2161.203125 1117.667969 2152.058594 1056.859375 2154.453125 1017.316406 C 2156.929688 976.605469 2161.683594 934.644531 2171.070312 895.421875 C 2178.933594 862.574219 2179.429688 787.222656 2149.519531 770.464844 C 2093.921875 739.34375 2018.058594 807.671875 1959.371094 831.5 C 1930.136719 843.382812 1905.019531 860.585938 1885.230469 883.925781 C 1871.375 900.265625 1852.300781 924.191406 1848.574219 945.707031 C 1844.636719 968.464844 1801.246094 982.53125 1803.277344 1005.863281 C 1808.941406 1070.367188 1796.292969 1112.558594 1803.277344 1204.222656 C 1804.347656 1218.058594 1798.207031 1233.472656 1792.628906 1245.738281 C 1787.921875 1256.023438 1782.066406 1265.839844 1775.039062 1274.691406 C 1770.085938 1280.957031 1734.304688 1294.410156 1738.949219 1299.863281 C 1757.835938 1322.0625 1827.347656 1327.199219 1844.507812 1327.992188 C 1885.359375 1329.875 1898.527344 1368.148438 1925.171875 1394.71875 C 1956.757812 1426.246094 1983.191406 1413.265625 2024.113281 1410.882812 C 2041.21875 1409.882812 2053.878906 1405.40625 2070.148438 1406.222656 C 2085.679688 1407.007812 2102.5 1401.375 2118.449219 1403.929688 " fill-opacity="1" fill-rule="nonzero"/><path fill="#f78e8c" d="M 1691.796875 1105.257812 C 1663.617188 1104.015625 1635.5 1102.277344 1607.34375 1100.886719 C 1581.820312 1099.617188 1555.898438 1098.738281 1530.507812 1102.289062 C 1536.617188 1138.964844 1601.710938 1155.742188 1630.527344 1166.550781 C 1662.136719 1178.40625 1690.367188 1191.984375 1722.636719 1198.699219 C 1758.070312 1206.070312 1787.40625 1209.578125 1809.566406 1174.65625 C 1820.199219 1157.890625 1823.183594 1142.121094 1819.261719 1128.925781 C 1780.175781 1110.425781 1735.050781 1107.171875 1691.796875 1105.257812 " fill-opacity="1" fill-rule="nonzero"/><path fill="#f78e8c" d="M 1738.535156 1000.304688 C 1738.535156 1000.304688 1730.574219 1077.300781 1738.535156 1140.050781 C 1738.535156 1140.050781 1776.050781 1179.824219 1809.566406 1174.65625 C 1809.566406 1174.65625 1839.3125 1119.378906 1853.453125 1025.511719 C 1853.453125 1025.511719 1795.085938 951.222656 1738.535156 1000.304688 " fill-opacity="1" fill-rule="nonzero"/><path fill="#984b67" d="M 1871.128906 1058.226562 C 1884.609375 1022.109375 1897.679688 984.691406 1897.570312 946.171875 C 1897.5 919.652344 1889.9375 891.988281 1883.929688 865.992188 C 1871.78125 813.3125 1791.042969 807.492188 1791.042969 807.492188 C 1762.730469 828.179688 1739.679688 890.855469 1735.398438 928.28125 C 1732.402344 954.632812 1727.742188 984.78125 1723.316406 1016.175781 C 1769.238281 1039.625 1819.753906 1052.773438 1871.128906 1058.226562 " fill-opacity="1" fill-rule="nonzero"/><path fill="#1d1e32" d="M 1909.050781 736.058594 C 1948.90625 736.039062 1990.300781 735.054688 2025.222656 717.378906 C 2026.4375 716.757812 2026.910156 715.28125 2026.296875 714.066406 C 2025.683594 712.851562 2024.207031 712.371094 2022.992188 712.984375 C 1989.472656 730.015625 1948.835938 731.148438 1909.050781 731.128906 C 1907.699219 731.128906 1906.585938 732.234375 1906.585938 733.59375 C 1906.585938 734.953125 1907.699219 736.058594 1909.050781 736.058594 " fill-opacity="1" fill-rule="nonzero"/><path fill="#1d1e32" d="M 1812.023438 800.449219 C 1823.90625 802.292969 1837.054688 811.316406 1847.714844 822.53125 C 1858.40625 833.695312 1866.648438 847.058594 1869.234375 856.761719 C 1872.945312 870.519531 1874.40625 886.742188 1874.40625 905.902344 C 1874.40625 927.6875 1872.519531 953.273438 1870.011719 983.332031 C 1869.90625 984.683594 1870.910156 985.875 1872.261719 985.988281 C 1873.621094 986.09375 1874.804688 985.097656 1874.925781 983.738281 C 1877.421875 953.65625 1879.324219 927.976562 1879.324219 905.902344 C 1879.324219 886.496094 1877.863281 869.867188 1873.988281 855.480469 C 1871 844.503906 1862.410156 830.835938 1851.273438 819.136719 C 1840.121094 807.484375 1826.453125 797.796875 1812.800781 795.585938 C 1811.460938 795.371094 1810.199219 796.289062 1809.980469 797.628906 C 1809.761719 798.96875 1810.679688 800.234375 1812.023438 800.449219 " fill-opacity="1" fill-rule="nonzero"/><path fill="#1d1e32" d="M 1302.332031 1863.367188 C 1326.679688 1802.417969 1402.730469 1630.097656 1429.230469 1570.246094 C 1444.410156 1535.964844 1458.820312 1501.921875 1477.105469 1469.554688 C 1483.078125 1458.972656 1488.710938 1445.984375 1495.210938 1433.816406 C 1501.703125 1421.644531 1509.082031 1410.34375 1518.210938 1403.125 C 1528.015625 1395.351562 1540.945312 1390.738281 1554.566406 1387.738281 C 1568.1875 1384.726562 1582.445312 1383.328125 1594.886719 1381.742188 C 1623.425781 1378.101562 1655.304688 1379.6875 1685.15625 1378.785156 C 1730.152344 1377.394531 1765.847656 1375.605469 1803.628906 1375.605469 C 1825.128906 1375.605469 1847.320312 1376.179688 1872.320312 1377.734375 C 1873.671875 1377.824219 1874.847656 1376.800781 1874.925781 1375.441406 C 1875.015625 1374.089844 1873.976562 1372.917969 1872.628906 1372.835938 C 1847.527344 1371.269531 1825.21875 1370.6875 1803.628906 1370.6875 C 1765.6875 1370.6875 1729.945312 1372.46875 1685 1373.859375 C 1655.421875 1374.777344 1623.425781 1373.152344 1594.261719 1376.863281 C 1581.925781 1378.4375 1567.507812 1379.847656 1553.5 1382.9375 C 1539.515625 1386.03125 1525.886719 1390.785156 1515.15625 1399.265625 C 1505.105469 1407.246094 1497.5 1419.097656 1490.875 1431.496094 C 1484.253906 1443.894531 1478.613281 1456.890625 1472.8125 1467.136719 C 1454.351562 1499.828125 1439.894531 1534.023438 1424.734375 1568.257812 C 1398.21875 1628.144531 1322.195312 1800.390625 1297.761719 1861.542969 C 1297.257812 1862.804688 1297.875 1864.234375 1299.132812 1864.738281 C 1300.398438 1865.238281 1301.828125 1864.640625 1302.332031 1863.367188 " fill-opacity="1" fill-rule="nonzero"/><path fill="#1d1e32" d="M 1455.792969 1878.082031 C 1494.324219 1728.71875 1505.402344 1699.390625 1532.917969 1579.125 C 1533.214844 1577.800781 1532.386719 1576.480469 1531.054688 1576.171875 C 1529.730469 1575.875 1528.410156 1576.695312 1528.113281 1578.027344 C 1500.636719 1698.140625 1489.589844 1727.371094 1451.027344 1876.859375 C 1450.683594 1878.171875 1451.480469 1879.511719 1452.792969 1879.855469 C 1454.105469 1880.183594 1455.445312 1879.40625 1455.792969 1878.082031 " fill-opacity="1" fill-rule="nonzero"/><path fill="#1d1e32" d="M 1877.929688 582.808594 L 1835.488281 584.609375 L 1835.488281 591.304688 L 1881.890625 586.074219 L 1877.929688 582.808594 " fill-opacity="1" fill-rule="nonzero"/><path fill="#1d1e32" d="M 1835.636719 580.589844 C 1832.964844 580.589844 1830.496094 580.765625 1828.113281 581.261719 C 1826.316406 581.628906 1824.550781 582.1875 1822.859375 583.039062 C 1820.335938 584.28125 1817.953125 586.390625 1816.488281 589.054688 C 1815.003906 591.714844 1814.453125 594.648438 1814.464844 597.480469 C 1814.472656 600.972656 1815.203125 604.457031 1816.414062 608.316406 C 1817.628906 612.179688 1819.363281 616.410156 1821.59375 621.191406 C 1823.941406 626.09375 1826.722656 632.234375 1832.085938 637.257812 C 1833.878906 638.90625 1835.6875 640.351562 1837.898438 641.460938 C 1840.085938 642.570312 1842.703125 643.164062 1845.078125 643.132812 C 1847.535156 643.132812 1849.6875 642.664062 1851.894531 642.09375 L 1848.179688 627.816406 C 1846.5 628.25 1845.472656 628.386719 1845.078125 628.375 L 1844.445312 628.230469 C 1844.125 628.085938 1843.332031 627.566406 1842.089844 626.414062 C 1839.535156 624.132812 1837.140625 619.691406 1834.96875 614.949219 C 1832.917969 610.546875 1831.433594 606.84375 1830.496094 603.882812 C 1829.554688 600.929688 1829.210938 598.707031 1829.222656 597.480469 C 1829.222656 596.570312 1829.375 596.261719 1829.375 596.261719 L 1829.128906 596.132812 L 1829.304688 596.339844 L 1829.375 596.261719 L 1829.128906 596.132812 L 1829.304688 596.339844 C 1829.304688 596.339844 1829.644531 596.058594 1830.703125 595.800781 C 1831.753906 595.542969 1833.445312 595.347656 1835.636719 595.347656 L 1835.636719 580.589844 " fill-opacity="1" fill-rule="nonzero"/><path fill="#22335a" d="M 2242.609375 1560.472656 C 2242.609375 1579.65625 2227.0625 1595.1875 2207.894531 1595.1875 L 1605.210938 1595.1875 C 1586.03125 1595.1875 1570.492188 1579.65625 1570.492188 1560.472656 L 1570.492188 1526.085938 C 1570.492188 1506.902344 1586.03125 1491.363281 1605.210938 1491.363281 L 2207.894531 1491.363281 C 2227.0625 1491.363281 2242.609375 1506.902344 2242.609375 1526.085938 L 2242.609375 1560.472656 " fill-opacity="1" fill-rule="nonzero"/><path fill="#192542" d="M 2207.894531 1491.363281 L 1910.117188 1491.363281 C 1929.300781 1491.363281 1944.839844 1506.902344 1944.839844 1526.085938 L 1944.839844 1560.472656 C 1944.839844 1579.65625 1929.300781 1595.1875 1910.117188 1595.1875 L 2207.894531 1595.1875 C 2227.0625 1595.1875 2242.609375 1579.65625 2242.609375 1560.472656 L 2242.609375 1526.085938 C 2242.609375 1506.902344 2227.0625 1491.363281 2207.894531 1491.363281 " fill-opacity="1" fill-rule="nonzero"/><path fill="#101729" d="M 2088.535156 1595.1875 L 2037.234375 1595.1875 L 2037.234375 1194.550781 L 2088.535156 1194.550781 L 2088.535156 1595.1875 " fill-opacity="1" fill-rule="nonzero"/><path fill="#192542" d="M 2223.914062 1131.480469 C 2223.914062 1166.300781 2195.683594 1194.550781 2160.851562 1194.550781 L 1914.398438 1194.550781 C 1879.554688 1194.550781 1851.324219 1166.300781 1851.324219 1131.480469 L 1851.324219 999.492188 C 1851.324219 964.664062 1879.554688 936.421875 1914.398438 936.421875 L 2160.851562 936.421875 C 2195.683594 936.421875 2223.914062 964.664062 2223.914062 999.492188 L 2223.914062 1131.480469 " fill-opacity="1" fill-rule="nonzero"/><path fill="#22335a" d="M 1889.535156 1132.425781 L 1888.851562 1000.453125 C 1888.683594 966.695312 1915.066406 938.992188 1948.402344 937.15625 L 1948.402344 936.417969 L 1914.394531 936.417969 C 1879.550781 936.417969 1851.324219 964.664062 1851.324219 999.496094 L 1851.324219 1131.472656 C 1851.324219 1166.304688 1879.550781 1194.546875 1914.394531 1194.546875 L 1943.699219 1194.546875 C 1913.210938 1190.230469 1889.699219 1164.125 1889.535156 1132.425781 " fill-opacity="1" fill-rule="nonzero"/><path fill="#151b2f" d="M 1877.519531 1911.496094 L 1829.398438 1911.496094 L 1829.398438 1595.1875 L 1877.519531 1595.1875 L 1877.519531 1911.496094 " fill-opacity="1" fill-rule="nonzero"/><path fill="#1d2b4c" d="M 1877.519531 1911.496094 L 1829.398438 1911.496094 L 1829.398438 1843.4375 L 1877.519531 1843.4375 L 1877.519531 1911.496094 " fill-opacity="1" fill-rule="nonzero"/><g clip-path="url(#77c81f34e4)"><path fill="#151b2f" d="M 1887.953125 1964.175781 C 1887.953125 1983.023438 1872.679688 1998.300781 1853.828125 1998.300781 C 1834.980469 1998.300781 1819.707031 1983.023438 1819.707031 1964.175781 C 1819.707031 1945.332031 1834.980469 1930.058594 1853.828125 1930.058594 C 1872.679688 1930.058594 1887.953125 1945.332031 1887.953125 1964.175781 " fill-opacity="1" fill-rule="nonzero"/></g><path fill="#497389" d="M 1867.804688 1964.175781 C 1867.804688 1971.890625 1861.542969 1978.152344 1853.828125 1978.152344 C 1846.109375 1978.152344 1839.855469 1971.890625 1839.855469 1964.175781 C 1839.855469 1956.457031 1846.109375 1950.203125 1853.828125 1950.203125 C 1861.542969 1950.203125 1867.804688 1956.457031 1867.804688 1964.175781 " fill-opacity="1" fill-rule="nonzero"/><g clip-path="url(#3b18395f14)"><path fill="#151b2f" d="M 1701.058594 1964.175781 C 1701.058594 1983.023438 1685.78125 1998.300781 1666.921875 1998.300781 C 1648.082031 1998.300781 1632.808594 1983.023438 1632.808594 1964.175781 C 1632.808594 1945.332031 1648.082031 1930.058594 1666.921875 1930.058594 C 1685.78125 1930.058594 1701.058594 1945.332031 1701.058594 1964.175781 " fill-opacity="1" fill-rule="nonzero"/></g><path fill="#497389" d="M 1680.90625 1964.175781 C 1680.90625 1971.890625 1674.65625 1978.152344 1666.921875 1978.152344 C 1659.210938 1978.152344 1652.957031 1971.890625 1652.957031 1964.175781 C 1652.957031 1956.457031 1659.210938 1950.203125 1666.921875 1950.203125 C 1674.65625 1950.203125 1680.90625 1956.457031 1680.90625 1964.175781 " fill-opacity="1" fill-rule="nonzero"/><g clip-path="url(#7b09d6b841)"><path fill="#151b2f" d="M 2074.855469 1964.175781 C 2074.855469 1983.023438 2059.585938 1998.300781 2040.71875 1998.300781 C 2021.886719 1998.300781 2006.601562 1983.023438 2006.601562 1964.175781 C 2006.601562 1945.332031 2021.886719 1930.050781 2040.71875 1930.050781 C 2059.585938 1930.050781 2074.855469 1945.332031 2074.855469 1964.175781 " fill-opacity="1" fill-rule="nonzero"/></g><path fill="#497389" d="M 2054.710938 1964.175781 C 2054.710938 1971.890625 2048.449219 1978.152344 2040.71875 1978.152344 C 2033.003906 1978.152344 2026.753906 1971.890625 2026.753906 1964.175781 C 2026.753906 1956.457031 2033.003906 1950.203125 2040.71875 1950.203125 C 2048.449219 1950.203125 2054.710938 1956.457031 2054.710938 1964.175781 " fill-opacity="1" fill-rule="nonzero"/><path fill="#1d2b4c" d="M 2062.1875 1939.589844 C 2054.671875 1921.289062 2033.410156 1922.730469 2033.410156 1922.730469 L 1869.0625 1903.921875 L 1838.601562 1903.921875 L 1674.242188 1922.730469 C 1674.242188 1922.730469 1652.992188 1921.289062 1645.464844 1939.589844 L 2062.1875 1939.589844 " fill-opacity="1" fill-rule="nonzero"/></svg>